<?xml version="1.0" encoding="UTF-8" standalone="no"?>
<svg width="509px" height="199px" viewBox="0 0 509 199" version="1.1" xmlns="http://www.w3.org/2000/svg" xmlns:xlink="http://www.w3.org/1999/xlink">
    <!-- Generator: Sketch 48.2 (47327) - http://www.bohemiancoding.com/sketch -->
    <title>Artboard</title>
    <desc>Created with Sketch.</desc>
    <defs>
        <rect id="path-1" x="0" y="0" width="749" height="215"></rect>
    </defs>
    <g id="Page-1" stroke="none" stroke-width="1" fill="none" fill-rule="evenodd">
        <g id="Artboard">
            <g id="Page-1" transform="translate(-125.000000, -16.000000)">
                <mask id="mask-2" fill="white">
                    <use xlink:href="#path-1"></use>
                </mask>
                <g id="Mask"></g>
                <g mask="url(#mask-2)" fill="#FFFFFF" id="Fill-1">
                    <g transform="translate(92.000000, 36.000000)">
                        <path d="M315.559196,0.000207517973 L196.236362,142.668814 L114.266763,92.8645003 L45.2670367,172.75892 L0.000103758986,370.938584 L52.2832194,249.54057 L93.5149654,210.112155 L82.1014769,234.495517 L186.378221,191.726062 L178.597334,209.59336 L228.40061,179.503254 L201.943106,233.976722 L269.38541,191.726062 L301.032938,196.104692 L294.806361,179.503254 L333.197186,201.811436 L315.559196,182.097228 L358.099343,205.443 L303.10708,158.751457 L232.552007,205.443 L270.942832,108.947143 L306.220887,101.165219 L316.076953,20.2332098 L450.964673,198.179871 L463.933509,152.525917 L475.865792,179.503254 L485.204101,134.368095 L535.527209,206.48059 L495.58,187.28414 L419.83594,224.119618 L471.71647,215.818899 L464.453341,228.269977 L500.768987,213.743719 L526.188901,249.54057 L560.948161,370.938584 L541.753786,202.330231 L484.686344,119.323042 L432.288056,155.119892 L315.559196,0.000207517973 Z M115.303315,100.127629 L177.819142,140.592596 L128.274226,166.272945 L126.716803,139.296647 L89.3635683,166.272945 L103.112672,137.740262 L67.8346162,156.934637 L115.303315,100.127629 Z"></path>
                    </g>
                </g>
            </g>
        </g>
    </g>
</svg>