<?xml version="1.0" encoding="UTF-8"?>
<svg width="598px" height="408px" viewBox="0 0 598 408" version="1.1" xmlns="http://www.w3.org/2000/svg" xmlns:xlink="http://www.w3.org/1999/xlink">
    <!-- Generator: Sketch 48.2 (47327) - http://www.bohemiancoding.com/sketch -->
    <title>Page 1</title>
    <desc>Created with Sketch.</desc>
    <defs>
        <filter x="-5.3%" y="-8.0%" width="110.7%" height="116.1%" filterUnits="objectBoundingBox" id="filter-1">
            <feOffset dx="0" dy="0" in="SourceAlpha" result="shadowOffsetOuter1"></feOffset>
            <feGaussianBlur stdDeviation="10" in="shadowOffsetOuter1" result="shadowBlurOuter1"></feGaussianBlur>
            <feColorMatrix values="0 0 0 0 0   0 0 0 0 0   0 0 0 0 0  0 0 0 1 0" type="matrix" in="shadowBlurOuter1" result="shadowMatrixOuter1"></feColorMatrix>
            <feMerge>
                <feMergeNode in="shadowMatrixOuter1"></feMergeNode>
                <feMergeNode in="SourceGraphic"></feMergeNode>
            </feMerge>
        </filter>
    </defs>
    <g id="home" stroke="none" stroke-width="1" fill="none" fill-rule="evenodd" transform="translate(-422.000000, -172.000000)">
        <g id="Page-1" filter="url(#filter-1)" transform="translate(440.000000, 189.000000)" fill="#FFFFFF">
            <path d="M315.559196,0.000207517973 L196.236362,142.668814 L114.266763,92.8645003 L45.2670367,172.75892 L0.000103758986,370.938584 L52.2832194,249.54057 L93.5149654,210.112155 L82.1014769,234.495517 L186.378221,191.726062 L178.597334,209.59336 L228.40061,179.503254 L201.943106,233.976722 L269.38541,191.726062 L301.032938,196.104692 L294.806361,179.503254 L333.197186,201.811436 L315.559196,182.097228 L358.099343,205.443 L303.10708,158.751457 L232.552007,205.443 L270.942832,108.947143 L306.220887,101.165219 L316.076953,20.2332098 L450.964673,198.179871 L463.933509,152.525917 L475.865792,179.503254 L485.204101,134.368095 L535.527209,206.48059 L495.58,187.28414 L419.83594,224.119618 L471.71647,215.818899 L464.453341,228.269977 L500.768987,213.743719 L526.188901,249.54057 L560.948161,370.938584 L541.753786,202.330231 L484.686344,119.323042 L432.288056,155.119892 L315.559196,0.000207517973 Z M115.303315,100.127629 L177.819142,140.592596 L128.274226,166.272945 L126.716803,139.296647 L89.3635683,166.272945 L103.112672,137.740262 L67.8346162,156.934637 L115.303315,100.127629 Z" id="Fill-1"></path>
            <path d="M99.9528992,325.268236 L87.0266047,283.169065 L74.2341592,325.268236 L99.9528992,325.268236 Z M107.458824,350.592691 L66.3754536,350.592691 L60.6666342,369.925066 L23.715984,369.925066 L67.7336587,252.81126 L107.207727,252.81126 L151.215026,369.925066 L113.319132,369.925066 L107.458824,350.592691 Z" id="Fill-2"></path>
            <g id="Group-11" transform="translate(166.014378, 247.006568)">
                <path d="M37.0432032,55.7336207 L45.9114838,55.7336207 C52.888238,55.7336207 57.7866998,54.5237909 60.6099818,52.0989434 C63.4332638,49.6761711 64.844386,46.574815 64.844386,42.7917623 C64.844386,39.1176566 63.6189924,36.0017743 61.1692427,33.4461904 C58.7194931,30.889569 54.1125941,29.6112583 47.3495833,29.6112583 L37.0432032,29.6112583 L37.0432032,55.7336207 Z M0.695392726,5.80479649 L60.849665,5.80479649 C73.9502747,5.80479649 83.762762,8.92067885 90.2881646,15.1524436 C96.8125297,21.3831707 100.074712,30.2493761 100.074712,41.7531349 C100.074712,53.577509 96.5188918,62.8172467 89.409326,69.4744233 C82.2997603,76.1326374 71.4476079,79.4601881 56.8559817,79.4601881 L37.0432032,79.4601881 L37.0432032,122.918602 L0.695392726,122.918602 L0.695392726,5.80479649 Z" id="Fill-3"></path>
                <polygon id="Fill-5" points="116.852333 5.80469273 213.83482 5.80469273 213.83482 30.8095708 153.121286 30.8095708 153.121286 49.4228954 209.440627 49.4228954 209.440627 73.3092516 153.121286 73.3092516 153.121286 96.3966637 215.591459 96.3966637 215.591459 122.918498 116.852333 122.918498"></polygon>
                <path d="M330.017284,24.9490558 C328.092555,23.0243266 328.092555,19.9032563 330.017284,17.9785271 C331.942014,16.0537979 335.063084,16.0537979 336.986776,17.9785271 C338.912542,19.9032563 338.912542,23.0243266 336.986776,24.9490558 C335.063084,26.873785 331.942014,26.873785 330.017284,24.9490558 Z M313.286148,41.6801923 C311.361419,39.7554631 311.361419,36.6354304 313.286148,34.7107012 C315.210877,32.785972 318.33091,32.785972 320.255639,34.7107012 C322.180368,36.6354304 322.180368,39.7554631 320.255639,41.6801923 C318.33091,43.6049215 315.210877,43.6049215 313.286148,41.6801923 Z M296.553974,58.4123665 C294.629245,56.4876373 294.629245,53.3665669 296.553974,51.4418378 C298.478703,49.5171086 301.599773,49.5171086 303.524503,51.4418378 C305.449232,53.3665669 305.449232,56.4876373 303.524503,58.4123665 C301.599773,60.3370956 298.478703,60.3370956 296.553974,58.4123665 Z M279.822837,75.143503 C277.898108,73.2187738 277.898108,70.0977035 279.822837,68.1729743 C281.747566,66.2482451 284.868637,66.2482451 286.793366,68.1729743 C288.718095,70.0977035 288.718095,73.2187738 286.793366,75.143503 C284.868637,77.0682322 281.747566,77.0682322 279.822837,75.143503 Z M263.091701,91.8746395 C261.166972,89.9499103 261.166972,86.8298776 263.091701,84.9051484 C265.01643,82.9804192 268.136463,82.9804192 270.061192,84.9051484 C271.985921,86.8298776 271.985921,89.9499103 270.061192,91.8746395 C268.136463,93.7993687 265.01643,93.7993687 263.091701,91.8746395 Z M246.359527,108.606814 C244.434797,106.682084 244.434797,103.561014 246.359527,101.636285 C248.284256,99.7115558 251.405326,99.7115558 253.330055,101.636285 C255.254784,103.561014 255.254784,106.682084 253.330055,108.606814 C251.405326,110.531543 248.284256,110.531543 246.359527,108.606814 Z M351.27335,29.3307978 C354.920479,25.684707 354.920479,19.7714824 351.27335,16.124354 L338.80152,3.65252384 C335.154392,0.00539546729 329.241167,0.00539546729 325.595076,3.65252384 L233.14997,96.0965927 C229.503879,99.7437211 229.503879,105.655908 233.14997,109.303036 L245.622838,121.775904 C249.269966,125.421995 255.182153,125.421995 258.829282,121.775904 L351.27335,29.3307978 Z" id="Fill-7"></path>
                <path d="M254.447332,24.9085898 C252.522603,26.833319 249.401533,26.833319 247.477841,24.9085898 C245.553112,22.9838606 245.553112,19.8627903 247.477841,17.9380611 C249.401533,16.0133319 252.522603,16.0133319 254.447332,17.9380611 C256.372061,19.8627903 256.372061,22.9838606 254.447332,24.9085898 Z M271.178469,41.6397263 C269.253739,43.5644555 266.133707,43.5644555 264.208977,41.6397263 C262.284248,39.7149971 262.284248,36.5949644 264.208977,34.6702352 C266.133707,32.745506 269.253739,32.745506 271.178469,34.6702352 C273.103198,36.5949644 273.103198,39.7149971 271.178469,41.6397263 Z M287.910643,58.3719004 C285.985914,60.2966296 282.864843,60.2966296 280.940114,58.3719004 C279.015385,56.4471713 279.015385,53.3261009 280.940114,51.4013717 C282.864843,49.4766426 285.985914,49.4766426 287.910643,51.4013717 C289.835372,53.3261009 289.835372,56.4471713 287.910643,58.3719004 Z M304.641779,75.103037 C302.71705,77.0277662 299.59598,77.0277662 297.671251,75.103037 C295.746521,73.1783078 295.746521,70.0572375 297.671251,68.1325083 C299.59598,66.2077791 302.71705,66.2077791 304.641779,68.1325083 C306.566508,70.0572375 306.566508,73.1783078 304.641779,75.103037 Z M321.372916,91.8341735 C319.448187,93.7589027 316.328154,93.7589027 314.403425,91.8341735 C312.478696,89.9094443 312.478696,86.7894116 314.403425,84.8646824 C316.328154,82.9399532 319.448187,82.9399532 321.372916,84.8646824 C323.297645,86.7894116 323.297645,89.9094443 321.372916,91.8341735 Z M338.10509,108.566348 C336.180361,110.491077 333.05929,110.491077 331.134561,108.566348 C329.209832,106.641618 329.209832,103.520548 331.134561,101.595819 C333.05929,99.6710898 336.180361,99.6710898 338.10509,101.595819 C340.029819,103.520548 340.029819,106.641618 338.10509,108.566348 Z M258.829074,3.65252384 C255.182983,0.00539546729 249.269759,0.00539546729 245.62263,3.65252384 L233.1508,16.124354 C229.503672,19.7714824 229.503672,25.684707 233.1508,29.3307978 L325.594869,121.775904 C329.241997,125.421995 335.154184,125.421995 338.801313,121.775904 L351.27418,109.303036 C354.920271,105.655908 354.920271,99.7437211 351.27418,96.0965927 L258.829074,3.65252384 Z" id="Fill-9"></path>
            </g>
        </g>
    </g>
</svg>