<?xml version="1.0" encoding="UTF-8"?>
<svg width="72px" height="48px" viewBox="0 0 72 48" version="1.1" xmlns="http://www.w3.org/2000/svg" xmlns:xlink="http://www.w3.org/1999/xlink">
    <!-- Generator: Sketch 48.2 (47327) - http://www.bohemiancoding.com/sketch -->
    <title>Page 1 Copy</title>
    <desc>Created with Sketch.</desc>
    <defs></defs>
    <g id="Page-1" stroke="none" stroke-width="1" fill="none" fill-rule="evenodd">
        <g id="Page-1-Copy" fill="#191919">
            <path d="M40.5033128,0 L25.1877342,18.4615385 L14.6665976,12.0167832 L5.81019781,22.3552448 L0,48 L6.71075383,32.2909091 L12.0030187,27.1888112 L10.5380503,30.3440559 L23.9224011,24.8096224 L22.9236922,27.1216783 L29.3161483,23.227972 L25.9202184,30.2769231 L34.5767166,24.8096224 L38.6388076,25.3762238 L37.8396008,23.227972 L42.7672217,26.1146853 L40.5033128,23.5636364 L45.9635164,26.5846154 L38.9050323,20.5426573 L29.8489973,26.5846154 L34.7766182,14.0979021 L39.3047023,13.0909091 L40.5697691,2.61818182 L57.8831651,25.6447552 L59.5477687,19.7370629 L61.0793266,23.227972 L62.2779371,17.3874126 L68.7371159,26.7188811 L63.6097265,24.2348308 L53.8876636,29.0013986 L60.546744,27.9272727 L59.6144913,29.5384615 L64.2757544,27.6587413 L67.5385054,32.2909091 L72,48 L69.5363227,26.1818182 L62.2114808,15.4405594 L55.4859441,20.0727273 L40.5033128,0 Z M14.7996434,12.9566434 L22.823808,18.1928727 L16.4645134,21.5159497 L16.2646118,18.0251748 L11.4701698,21.5159497 L13.234924,17.8237762 L8.70683985,20.307558 L14.7996434,12.9566434 Z" id="Fill-1"></path>
            <path d="M12.5670573,42.2803289 L10.9449219,36.8882441 L9.33958333,42.2803289 L12.5670573,42.2803289 Z M13.5089844,45.523899 L8.35338542,45.523899 L7.63697917,48 L3,48 L8.52382812,33 L13.477474,33 L19,48 L14.244401,48 L13.5089844,45.523899 Z" id="Fill-2"></path>
            <g id="Group-11" transform="translate(21.000000, 32.000000)">
                <path d="M4.79996436,7.13390345 L5.94909367,7.13390345 C6.8531238,7.13390345 7.48785405,6.97904524 7.85368778,6.66866476 C8.21952151,6.3585499 8.40237115,5.96157632 8.40237115,5.47734558 C8.40237115,5.00706005 8.24358775,4.60822711 7.92615539,4.28111238 C7.60872304,3.95386483 7.01177275,3.79024106 6.13543897,3.79024106 L4.79996436,3.79024106 L4.79996436,7.13390345 Z M0.0901072265,0.743013951 L7.88474533,0.743013951 C9.58228911,0.743013951 10.8537663,1.14184689 11.6993115,1.93951278 C12.5447222,2.73704585 12.9674275,3.87192014 12.9674275,5.34440127 C12.9674275,6.85792115 12.5066733,8.04060758 11.5854338,8.89272618 C10.6641943,9.74497759 9.2579999,10.1709041 7.36725396,10.1709041 L4.79996436,10.1709041 L4.79996436,15.733581 L0.0901072265,15.733581 L0.0901072265,0.743013951 Z" id="Fill-3"></path>
                <polygon id="Fill-5" points="15.141429 0.743000669 27.7081738 0.743000669 27.7081738 3.94362507 19.8410681 3.94362507 19.8410681 6.32613061 27.1387854 6.32613061 27.1387854 9.38358421 19.8410681 9.38358421 19.8410681 12.338773 27.9357947 12.338773 27.9357947 15.7335678 15.141429 15.7335678"></polygon>
                <path d="M42.7628031,3.19347914 C42.5134015,2.9471138 42.5134015,2.5476168 42.7628031,2.30125147 C43.0122046,2.05488613 43.416625,2.05488613 43.665892,2.30125147 C43.915428,2.5476168 43.915428,2.9471138 43.665892,3.19347914 C43.416625,3.43984448 43.0122046,3.43984448 42.7628031,3.19347914 Z M40.5948248,5.33506462 C40.3454233,5.08869928 40.3454233,4.68933509 40.5948248,4.44296975 C40.8442263,4.19660442 41.2485123,4.19660442 41.4979138,4.44296975 C41.7473153,4.68933509 41.7473153,5.08869928 41.4979138,5.33506462 C41.2485123,5.58142995 40.8442263,5.58142995 40.5948248,5.33506462 Z M38.4267121,7.47678291 C38.1773106,7.23041757 38.1773106,6.83092057 38.4267121,6.58455523 C38.6761136,6.3381899 39.080534,6.3381899 39.3299355,6.58455523 C39.5793371,6.83092057 39.5793371,7.23041757 39.3299355,7.47678291 C39.080534,7.72314824 38.6761136,7.72314824 38.4267121,7.47678291 Z M36.2587338,9.61836838 C36.0093323,9.37200305 36.0093323,8.97250605 36.2587338,8.72614071 C36.5081354,8.47977537 36.9125558,8.47977537 37.1619573,8.72614071 C37.4113588,8.97250605 37.4113588,9.37200305 37.1619573,9.61836838 C36.9125558,9.86473372 36.5081354,9.86473372 36.2587338,9.61836838 Z M34.0907556,11.7599539 C33.8413541,11.5135885 33.8413541,11.1142243 34.0907556,10.867859 C34.3401571,10.6214937 34.744443,10.6214937 34.9938446,10.867859 C35.2432461,11.1142243 35.2432461,11.5135885 34.9938446,11.7599539 C34.744443,12.0063192 34.3401571,12.0063192 34.0907556,11.7599539 Z M31.9226429,13.9016721 C31.6732414,13.6553068 31.6732414,13.2558098 31.9226429,13.0094445 C32.1720444,12.7630791 32.5764648,12.7630791 32.8258663,13.0094445 C33.0752678,13.2558098 33.0752678,13.6553068 32.8258663,13.9016721 C32.5764648,14.1480375 32.1720444,14.1480375 31.9226429,13.9016721 Z M45.5171102,3.75434211 C45.9896958,3.28764249 45.9896958,2.53074974 45.5171102,2.06391731 L43.9010421,0.467523051 C43.4284564,0.000690619813 42.6622358,0.000690619813 42.1897846,0.467523051 L30.210982,12.3003639 C29.7385308,12.7671963 29.7385308,13.5239562 30.210982,13.9907887 L31.8271846,15.5873157 C32.2997703,16.0540154 33.0658565,16.0540154 33.5384421,15.5873157 L45.5171102,3.75434211 Z" id="Fill-7"></path>
                <path d="M32.9706402,3.18829949 C32.7212387,3.43466483 32.3168183,3.43466483 32.0675512,3.18829949 C31.8181497,2.94193415 31.8181497,2.54243715 32.0675512,2.29607182 C32.3168183,2.04970648 32.7212387,2.04970648 32.9706402,2.29607182 C33.2200417,2.54243715 33.2200417,2.94193415 32.9706402,3.18829949 Z M35.1386185,5.32988497 C34.8892169,5.57625031 34.484931,5.57625031 34.2355295,5.32988497 C33.9861279,5.08351963 33.9861279,4.68415544 34.2355295,4.43779011 C34.484931,4.19142477 34.8892169,4.19142477 35.1386185,4.43779011 C35.38802,4.68415544 35.38802,5.08351963 35.1386185,5.32988497 Z M37.3067312,7.47160326 C37.0573296,7.71796859 36.6529093,7.71796859 36.4035077,7.47160326 C36.1541062,7.22523792 36.1541062,6.82574092 36.4035077,6.57937558 C36.6529093,6.33301025 37.0573296,6.33301025 37.3067312,6.57937558 C37.5561327,6.82574092 37.5561327,7.22523792 37.3067312,7.47160326 Z M39.4747094,9.61318873 C39.2253079,9.85955407 38.8208875,9.85955407 38.571486,9.61318873 C38.3220845,9.3668234 38.3220845,8.9673264 38.571486,8.72096106 C38.8208875,8.47459572 39.2253079,8.47459572 39.4747094,8.72096106 C39.724111,8.9673264 39.724111,9.3668234 39.4747094,9.61318873 Z M41.6426877,11.7547742 C41.3932862,12.0011395 40.9890002,12.0011395 40.7395987,11.7547742 C40.4901972,11.5084089 40.4901972,11.1090447 40.7395987,10.8626794 C40.9890002,10.616314 41.3932862,10.616314 41.6426877,10.8626794 C41.8920892,11.1090447 41.8920892,11.5084089 41.6426877,11.7547742 Z M43.8108004,13.8964925 C43.5613989,14.1428578 43.1569785,14.1428578 42.907577,13.8964925 C42.6581754,13.6501272 42.6581754,13.2506302 42.907577,13.0042648 C43.1569785,12.7578995 43.5613989,12.7578995 43.8108004,13.0042648 C44.0602019,13.2506302 44.0602019,13.6501272 43.8108004,13.8964925 Z M33.5384152,0.467523051 C33.065964,0.000690619813 32.2997434,0.000690619813 31.8271577,0.467523051 L30.2110896,2.06391731 C29.7385039,2.53074974 29.7385039,3.28764249 30.2110896,3.75434211 L42.1897577,15.5873157 C42.6623433,16.0540154 43.4284295,16.0540154 43.9010152,15.5873157 L45.5172178,13.9907887 C45.989669,13.5239562 45.989669,12.7671963 45.5172178,12.3003639 L33.5384152,0.467523051 Z" id="Fill-9"></path>
            </g>
        </g>
    </g>
</svg>