<?xml version="1.0" encoding="UTF-8" standalone="no"?>
<svg width="478px" height="180px" viewBox="0 0 478 180" version="1.1" xmlns="http://www.w3.org/2000/svg" xmlns:xlink="http://www.w3.org/1999/xlink">
    <!-- Generator: Sketch 48.2 (47327) - http://www.bohemiancoding.com/sketch -->
    <title>Page 1</title>
    <desc>Created with Sketch.</desc>
    <defs></defs>
    <g id="pickup-category" stroke="none" stroke-width="1" fill="none" fill-rule="evenodd" transform="translate(-442.000000, -309.000000)">
        <g id="Page-1" transform="translate(442.000000, 309.000000)" fill="#E5E5E5">
            <path d="M270.559092,0 L151.236258,145.745529 L69.2666589,94.86709 L0.266932958,176.484586 L35.5839844,176.484586 L88.9394531,176.484586 L288.226562,176.484586 L261.220784,149.314453 L204.134766,166.150391 L225.942728,111.296586 L261.220784,103.34683 L271.07685,20.669366 L387.287952,179.183594 L418.933405,155.81522 L430.402344,179.183594 L440.203997,137.265789 L469.267578,179.183594 L477.435547,179.183594 L439.68624,121.896261 L387.287952,158.465139 L270.559092,0 Z M70.3032111,102.286862 L132.819038,143.624534 L83.274122,169.85873 L81.7166996,142.300635 L44.3634646,169.85873 L58.1125678,140.710684 L22.8345125,160.319022 L70.3032111,102.286862 Z" id="Fill-1"></path>
        </g>
    </g>
</svg>